<svg width="122.88" height="122.59" xmlns="http://www.w3.org/2000/svg" xml:space="preserve" version="1.1">

 <g>
  <title>Layer 1</title>
  <path stroke="null" id="svg_2" fill="#3AB7FC" clip-rule="evenodd" fill-rule="evenodd" d="m85.25898,111.67102c2.92,0 5.29,2.37 5.29,5.29c0,2.92 -2.37,5.29 -5.29,5.29s-5.29,-2.37 -5.29,-5.29c-0.01,-2.92 2.36,-5.29 5.29,-5.29l0,0zm-22.26,-100.96c-1.58,-2.39 3.35,-9.11 6.99,-8.14c-3.09,1.96 -5.43,5.1 -6.99,8.14l0,0zm-34,18.31c-4.17,0.12 -5.43,-11.15 -1.03,-13.11c-1.32,4.17 -0.86,9.04 1.03,13.11l0,0zm66.08,16.18c5.52,0.65 10.22,-8.19 6.9,-12.42c-0.29,5.86 -3.59,9.12 -6.9,12.42l0,0zm20.07,23.95c1.35,-2.81 -1.79,-6.89 -5.65,-6.58c2.79,1.36 4.49,3.68 5.65,6.58l0,0zm-112.18,-17.78c-1.28,-1.93 2.71,-7.36 5.65,-6.58c-2.6,1.54 -4.48,4.08 -5.65,6.58l0,0zm12.18,20.29c-0.47,2.53 5.94,6.36 8.61,4.29c-3.23,-0.54 -6.26,-2.32 -8.61,-4.29l0,0zm44.31,-37.9c-0.78,-5.39 -1.2,-10.54 -1.01,-15.29c0.18,-4.52 1.04,-9.77 3.24,-13.55c4.61,-7.94 15.81,-6.39 17.28,1.33c0.49,2.57 -0.17,5.52 -2.48,7.92c-1.54,1.6 -3.89,3.06 -6,4.92c-4.98,4.4 -8.46,8.53 -11.03,14.67l0,0zm31.61,31c3.67,-1.58 7.23,-2.85 10.63,-3.62c3.24,-0.73 7.11,-1.11 10.21,-0.28c6.5,1.75 7.53,9.98 2.34,12.49c-1.73,0.83 -3.94,0.93 -6.08,-0.25c-1.43,-0.79 -2.91,-2.17 -4.62,-3.31c-4.06,-2.7 -7.64,-4.38 -12.48,-5.03l0,0zm-64.16,-12.39c-3.07,-2.55 -6.13,-4.78 -9.17,-6.48c-2.9,-1.62 -6.51,-3.08 -9.71,-3.16c-6.73,-0.16 -10.04,7.44 -5.78,11.31c1.42,1.29 3.52,2.01 5.9,1.48c1.59,-0.35 3.4,-1.26 5.37,-1.87c4.66,-1.42 8.57,-2.02 13.39,-1.28l0,0zm-3.42,-37.32c5.13,-6.98 17.57,-7.8 22.35,6.1c0.83,2.48 1.67,4.94 2.52,7.38c0.54,1.54 1.18,3.63 1.93,5.81c5.31,15.3 14,14.95 23.68,3.34c4.57,-5.48 6.4,-11.34 13.71,-14.09c8.9,-3.35 18.01,2.43 19.42,11.03c1.84,11.2 -5.26,13.66 -12.71,17.96c-2.33,1.35 -4.93,2.98 -7.25,4.78c-3.5,2.72 -6.34,5.83 -6.58,8.92c-0.62,8.13 25.61,13.28 35.1,18.59c13.22,6.23 7.37,22.87 -4.29,22.97c-3.2,0.03 -6.45,-1.34 -9.74,-3.99l-22.94,-20.3c-1.48,-1.34 -3.49,-1.26 -4.72,-0.19c-2.25,1.94 3.91,16.36 4.39,18.51c1.87,8.47 -9.49,14.09 -12.72,1.17c-2.39,-9.57 -10.37,-21.14 -15.17,-9.75l-0.88,2.79c-1.48,4.68 -2.45,12.39 -8.19,13.37c-4.91,0.84 -9.63,-4.42 -7.77,-9.23c2.09,-4.46 6.94,-11.21 5,-16.09c-0.42,-1.07 -1.4,-2.1 -2.31,-2.78c-3.89,-2.91 -8.07,-1.45 -12.35,-1.17c-2.89,0.19 -5.13,-0.03 -6.89,-0.71c-5.55,-2.16 -6.85,-8 -4.71,-12.3c3.8,-7.66 11.15,-3.43 17.7,-6.02c14.88,-5.86 3.43,-19.45 -2.19,-26.29c-4.77,-5.78 -9.95,-12.26 -4.39,-19.81l0,0zm-6.62,76.63c1.79,0 3.24,1.45 3.24,3.24s-1.45,3.24 -3.24,3.24s-3.24,-1.45 -3.24,-3.24s1.46,-3.24 3.24,-3.24l0,0zm41.84,19.86c1.23,0 2.22,1 2.22,2.22s-1,2.22 -2.22,2.22c-1.23,0 -2.22,-1 -2.22,-2.22s0.99,-2.22 2.22,-2.22l0,0z" class="st0"/>
  <path stroke="null" id="svg_3" fill="#FFFFFF" d="m62.66,11.05c-1.58,-2.39 3.35,-9.11 6.99,-8.14c-3.09,1.96 -5.43,5.1 -6.99,8.14l0,0zm-34,18.31c-4.17,0.12 -5.43,-11.15 -1.03,-13.11c-1.32,4.17 -0.86,9.04 1.03,13.11l0,0zm66.08,16.18c5.52,0.65 10.22,-8.19 6.9,-12.42c-0.29,5.86 -3.59,9.12 -6.9,12.42l0,0zm20.07,23.95c1.35,-2.81 -1.79,-6.89 -5.65,-6.58c2.79,1.36 4.49,3.68 5.65,6.58l0,0zm-112.18,-17.78c-1.28,-1.93 2.71,-7.36 5.65,-6.58c-2.6,1.54 -4.48,4.08 -5.65,6.58l0,0zm12.18,20.29c-0.47,2.53 5.94,6.36 8.61,4.29c-3.23,-0.54 -6.26,-2.32 -8.61,-4.29l0,0z" class="st1"/>
  <text transform="matrix(1.63656 0 0 1.79711 -29.4785 -35.3178)" stroke="null" font-style="normal" font-weight="bold" xml:space="preserve" text-anchor="start" font-family="monospace" font-size="19" stroke-width="0" id="svg_4" y="63.8271" x="40" fill="#FFFFFF">UP</text>
 </g>
</svg>